PathFileType	4	(X/Y/Z)	G:\TennisProject\Miami_Dimitrov_Sinner_masked_Sports2D\Miami_Dimitrov_Sinner_masked_Sports2D_px_person00.trc
DataRate	CameraRate	NumFrames	NumMarkers	Units	OrigDataRate	OrigDataStartFrame	OrigNumFrames
25	25	7	22	m	25	0	499
Frame#	Time	Hip			RHip			RKnee			RAnkle			RBigToe			RSmallToe			RHeel			LHip			LKnee			LAnkle			LBigToe			LSmallToe			LHeel			Neck			Head			Nose			RShoulder			RElbow			RWrist			LShoulder			LElbow			LWrist		
		X1	Y1	Z1	X2	Y2	Z2	X3	Y3	Z3	X4	Y4	Z4	X5	Y5	Z5	X6	Y6	Z6	X7	Y7	Z7	X8	Y8	Z8	X9	Y9	Z9	X10	Y10	Z10	X11	Y11	Z11	X12	Y12	Z12	X13	Y13	Z13	X14	Y14	Z14	X15	Y15	Z15	X16	Y16	Z16	X17	Y17	Z17	X18	Y18	Z18	X19	Y19	Z19	X20	Y20	Z20	X21	Y21	Z21	X22	Y22	Z22
0	0.0	719.8399480266028	247.17462568278881	0.0	712.1955487797301	246.120197082237	0.0	704.023992543976	270.3713691136549	0.0	698.752005995223	291.7228509444131	0.0	694.2708364686746	297.258389652181	0.0	692.4256683094333	295.9403773505613	0.0	699.5428061624793	295.6768465249482	0.0	727.747920583368	245.32939033418444	0.0	739.3462512794623	268.262518652628	0.0	749.0993835241388	292.2501235418274	0.0	749.6265528139949	299.6309653082337	0.0	753.5805336871582	298.5765678378865	0.0	749.3629952990023	296.2040968332278	0.0	716.6767595853385	216.86072627873517	0.0	714.8315603744327	196.82717572356913	0.0	716.1495441211945	209.47996939020385	0.0	706.396337362723	222.13269657967933	0.0	700.597128959234	238.212238205605	0.0	711.6683476385778	245.8566751914293	0.0	727.4843074116905	219.23314594497123	0.0	731.4383201777409	233.73110314163222	0.0	729.3293275036401	245.06578759540923	0.0
1	0.04	720.7619412857862	247.02464869079802	0.0	713.0010422792827	247.501946461046	0.0	704.2059106483689	271.3970475703039	0.0	699.0257419898929	291.47112309388183	0.0	694.1964319071107	297.25779377399056	0.0	692.5239777939031	295.89855950248824	0.0	699.5602805503906	295.13836772754075	0.0	728.7334078410604	246.32373055488415	0.0	738.9148134931586	268.36129781742915	0.0	744.8595222165518	292.26036877504487	0.0	745.78303050692	300.51211561599786	0.0	748.9951456682824	299.03397630573653	0.0	744.5233012568467	296.185859387837	0.0	717.8363584271465	216.944446691525	0.0	716.2181639052618	198.86142610075427	0.0	717.1265397930595	209.50227195462298	0.0	707.0087010437918	222.14001329439725	0.0	702.4827676338759	238.42278470330157	0.0	713.6944527048025	246.44431787291305	0.0	729.1967387781275	219.95374816840254	0.0	732.3369922885216	234.4526434396589	0.0	727.7966313331942	245.25793004627207	0.0
2	0.08	721.6769863105646	247.968610124968	0.0	713.9001655084314	249.09866019072643	0.0	704.6254872643365	272.18485609548617	0.0	699.1632087162262	291.48766504564037	0.0	693.9153360649843	297.2524747171391	0.0	692.4311259454496	295.8010024306656	0.0	699.5947784417447	295.08196031958795	0.0	729.6449583338108	247.9037642807727	0.0	738.4872245355989	269.24092603472354	0.0	742.1526709123654	293.09949867718854	0.0	743.7259389294394	301.13596515966697	0.0	746.6453661847409	299.6218180670766	0.0	741.2893253015748	297.0452958916957	0.0	718.9706894892265	217.45178567881567	0.0	717.4361919757157	200.1609808080575	0.0	718.1379246305188	209.88218354669831	0.0	708.1666305045953	222.89212402136556	0.0	704.0454334128577	239.12395755671736	0.0	714.5353979005012	247.07759022099208	0.0	730.5628180581172	220.80320083793407	0.0	733.5864101665172	235.61795378062095	0.0	727.6999112256907	246.31749440235524	0.0
3	0.12	722.8031317685086	249.33511722939238	0.0	715.0253847750199	250.00169151809416	0.0	705.4956167952324	272.3331674178351	0.0	699.2899404330714	291.7035971163124	0.0	693.6906832742668	297.1055109482857	0.0	692.2728035100979	295.5606919312006	0.0	699.6292847476942	295.2914792557506	0.0	730.7411064464105	249.0852548456843	0.0	738.3725315695908	270.43840670407974	0.0	741.4030665730822	294.3118148517517	0.0	743.6034498262552	301.39246156045715	0.0	746.4020862726799	300.1557090237922	0.0	740.3737020723545	298.1482415193336	0.0	720.3800954204245	218.11195173945956	0.0	718.8091733843197	200.565031711188	0.0	719.3712976519984	210.51319792442376	0.0	709.8107577396706	223.9647343183792	0.0	705.4492700338485	240.08004157952104	0.0	714.9745940081085	247.73769327635597	0.0	731.8484832530903	221.5948162616258	0.0	735.4712380381316	237.04053253006936	0.0	729.0133133260998	247.47474508723354	0.0
4	0.16	724.3094941666409	249.8137016708281	0.0	716.5130969244451	249.93939459865476	0.0	706.9200803516701	271.8950759847334	0.0	699.4348302889741	291.51126976252795	0.0	693.4597570285373	296.9552642242744	0.0	691.999205663212	295.2557042169683	0.0	699.5535768209331	295.09699779256437	0.0	732.0835981537891	249.19171190268003	0.0	738.8857032861052	271.044185190867	0.0	741.7449471594653	294.87607925953927	0.0	744.0152413574172	301.4072511840767	0.0	746.7324703724041	300.3884604755486	0.0	740.8524950976384	298.5079532194669	0.0	722.2138785445514	218.24407263560957	0.0	720.6174233558102	200.42730889204626	0.0	721.1417082925255	210.64900539166547	0.0	711.6906285426425	224.29007619409205	0.0	707.0695220408949	240.4777208607059	0.0	716.3161052446881	247.9853549840215	0.0	733.5465622855091	221.7677616763107	0.0	737.8106109397236	237.67832768743494	0.0	731.0968849657254	247.24756767249738	0.0
5	0.2	726.0538111495641	249.04596328412225	0.0	718.3454904683997	249.57571370962773	0.0	708.8014260720357	271.344549111514	0.0	699.2827183182978	290.77847207905114	0.0	692.7850762348028	297.1603221413447	0.0	691.323419651676	295.14845327694667	0.0	699.0178862245986	294.4157218725428	0.0	733.4843622195227	248.74837245915649	0.0	739.8172945589716	271.1248068454682	0.0	742.2304451927017	294.660424425684	0.0	743.9998096445911	301.4474707438191	0.0	746.8420749638765	300.4318529962359	0.0	741.3891345803215	298.2347352470435	0.0	724.2794719203197	217.4614046278498	0.0	722.6911088190443	199.82434062424534	0.0	723.4388047127683	209.6881280312541	0.0	713.7095530575215	223.41509377921477	0.0	708.9504765382184	239.8054937293757	0.0	718.5127931359516	247.29826193899237	0.0	735.704909594884	220.92128875917422	0.0	740.1862275015764	236.8425593371157	0.0	733.2896369071337	245.38398637176692	0.0
6	0.24	727.8255218203259	247.7589895846943	0.0	720.3589470248754	248.9182635338018	0.0	710.9837817234239	271.104807232068	0.0	699.0001930981973	290.134299234522	0.0	692.5597845142795	297.6239123213992	0.0	691.0632891850696	295.36998809512124	0.0	698.2974332873284	293.5589311067097	0.0	735.0385093267885	248.065649221427	0.0	740.6587406481528	271.2898114825552	0.0	742.5532706681095	294.54865684731436	0.0	744.0120576335406	301.6168416675067	0.0	747.0136425027355	300.50312087935697	0.0	741.4362694405306	298.24710903155983	0.0	726.3920735265267	216.00040601904493	0.0	724.7476536190142	198.496962548487	0.0	725.8046533058185	207.97585634377174	0.0	715.8219713423019	221.8074798324097	0.0	710.8524095896662	238.31255267362113	0.0	720.9644642094357	246.02632459645784	0.0	737.9917658025756	219.2921645351912	0.0	742.5237082334063	235.20026659079534	0.0	734.8426256271691	243.04035950144336	0.0
